<svg width="24" height="23" viewBox="0 0 24 23" fill="none" xmlns="http://www.w3.org/2000/svg">
<path d="M23.8639 21.6005C22.1083 18.5757 19.4029 16.4068 16.2455 15.3786C17.8073 14.4521 19.0207 13.0402 19.6994 11.3599C20.378 9.67956 20.4845 7.82367 20.0023 6.07722C19.5202 4.33077 18.4761 2.79033 17.0305 1.69246C15.5849 0.59459 13.8176 0 12 0C10.1824 0 8.41515 0.59459 6.9695 1.69246C5.52385 2.79033 4.47979 4.33077 3.99765 6.07722C3.51552 7.82367 3.62196 9.67956 4.30065 11.3599C4.97933 13.0402 6.19272 14.4521 7.75448 15.3786C4.59714 16.4056 1.89168 18.5746 0.136064 21.6005C0.071683 21.7051 0.0289793 21.8215 0.0104728 21.9429C-0.00803369 22.0642 -0.00196803 22.188 0.0283119 22.3069C0.0585918 22.4259 0.112473 22.5376 0.186775 22.6355C0.261078 22.7333 0.354297 22.8154 0.460934 22.8768C0.56757 22.9382 0.685463 22.9776 0.807656 22.9929C0.92985 23.0081 1.05387 22.9988 1.1724 22.9655C1.29092 22.9322 1.40156 22.8756 1.49777 22.799C1.59399 22.7224 1.67384 22.6274 1.7326 22.5195C3.90435 18.779 7.74295 16.5458 12 16.5458C16.257 16.5458 20.0956 18.779 22.2674 22.5195C22.3262 22.6274 22.406 22.7224 22.5022 22.799C22.5984 22.8756 22.7091 22.9322 22.8276 22.9655C22.9461 22.9988 23.0701 23.0081 23.1923 22.9929C23.3145 22.9776 23.4324 22.9382 23.5391 22.8768C23.6457 22.8154 23.7389 22.7333 23.8132 22.6355C23.8875 22.5376 23.9414 22.4259 23.9717 22.3069C24.002 22.188 24.008 22.0642 23.9895 21.9429C23.971 21.8215 23.9283 21.7051 23.8639 21.6005ZM5.54469 8.27446C5.54469 7.00208 5.92329 5.75827 6.63261 4.70033C7.34193 3.64239 8.35011 2.81782 9.52966 2.3309C10.7092 1.84398 12.0072 1.71658 13.2594 1.96481C14.5116 2.21304 15.6618 2.82575 16.5646 3.72546C17.4674 4.62516 18.0822 5.77146 18.3313 7.01939C18.5804 8.26732 18.4525 9.56083 17.9639 10.7364C17.4753 11.9119 16.6479 12.9166 15.5864 13.6235C14.5248 14.3304 13.2767 14.7077 12 14.7077C10.2885 14.7059 8.64764 14.0275 7.43743 12.8214C6.22722 11.6154 5.54652 9.9801 5.54469 8.27446Z" fill="#A4A4A4"/>
</svg>
