<svg width="29" height="28" viewBox="0 0 29 28" fill="none" xmlns="http://www.w3.org/2000/svg">
<path d="M14.5 20.6689C14.0811 20.6689 13.735 20.527 13.4618 20.2432C13.1873 19.9595 13.05 19.6284 13.05 19.25V4.77703L9.32833 8.41892C9.03833 8.67117 8.7 8.8055 8.31333 8.82189C7.92667 8.83703 7.57222 8.68694 7.25 8.37162C6.96 8.08784 6.82338 7.74856 6.84013 7.35378C6.8556 6.96027 6.99222 6.63739 7.25 6.38514L13.2917 0.472973C13.4528 0.315315 13.6384 0.196757 13.8485 0.117298C14.0573 0.0390996 14.2744 0 14.5 0C14.7256 0 14.9434 0.0390996 15.1535 0.117298C15.3623 0.196757 15.5472 0.315315 15.7083 0.472973L21.75 6.38514C22.04 6.66892 22.1773 7 22.1618 7.37838C22.145 7.75676 22.0078 8.08784 21.75 8.37162C21.4278 8.65541 21.0733 8.8055 20.6867 8.82189C20.3 8.83703 19.9617 8.7027 19.6717 8.41892L15.95 4.77703V19.25C15.95 19.6284 15.8134 19.9595 15.5401 20.2432C15.2656 20.527 14.9189 20.6689 14.5 20.6689ZM3.48 28C2.51333 28 1.69167 27.6689 1.015 27.0068C0.338333 26.3446 0 25.5405 0 24.5946V20.9054C0 20.4955 0.137266 20.1562 0.4118 19.8876C0.685044 19.6202 1.03111 19.4865 1.45 19.4865C1.86889 19.4865 2.21496 19.6202 2.4882 19.8876C2.76273 20.1562 2.9 20.4955 2.9 20.9054V24.5946C2.9 24.7207 2.96444 24.8468 3.09333 24.973C3.22222 25.0991 3.35111 25.1622 3.48 25.1622H25.52C25.6489 25.1622 25.7778 25.0991 25.9067 24.973C26.0356 24.8468 26.1 24.7207 26.1 24.5946V20.9054C26.1 20.4955 26.2366 20.1562 26.5099 19.8876C26.7844 19.6202 27.1311 19.4865 27.55 19.4865C27.9689 19.4865 28.3156 19.6202 28.5901 19.8876C28.8634 20.1562 29 20.4955 29 20.9054V24.5946C29 25.5405 28.6617 26.3446 27.985 27.0068C27.3083 27.6689 26.4867 28 25.52 28H3.48Z" fill="white"/>
</svg>
