<svg width="19" height="19" viewBox="0 0 19 19" fill="none" xmlns="http://www.w3.org/2000/svg">
<path d="M12.2389 1.43883C12.2565 1.42121 12.2649 1.41518 12.2671 1.41375C12.4131 1.31666 12.9505 0.996133 13.6943 0.952481C14.4142 0.910238 15.3862 1.12275 16.4455 2.18198C17.5047 3.24121 17.7172 4.21324 17.675 4.9331C17.6313 5.67697 17.3108 6.21429 17.2137 6.36034C17.2123 6.36249 17.2062 6.37096 17.1886 6.38857L7.46821 16.109C7.40697 16.1702 7.33088 16.2145 7.24739 16.2375L1.39255 17.8497C1.0185 17.9527 0.67475 17.6089 0.777751 17.2349L0.295693 17.1021L0.777752 17.2349L2.38995 11.38C2.41294 11.2966 2.45722 11.2205 2.51846 11.1592L12.2389 1.43883Z" stroke="#A4A4A4"/>
</svg>
