<svg width="31" height="24" viewBox="0 0 31 24" fill="none" xmlns="http://www.w3.org/2000/svg">
<path d="M21.8519 22.8394C20.9636 21.3037 19.5948 20.2025 17.9973 19.6805C18.7875 19.2101 19.4014 18.4933 19.7448 17.6402C20.0882 16.7871 20.142 15.8449 19.8981 14.9583C19.6541 14.0716 19.1259 13.2895 18.3944 12.7321C17.663 12.1747 16.7688 11.8729 15.8492 11.8729C14.9296 11.8729 14.0354 12.1747 13.304 12.7321C12.5725 13.2895 12.0443 14.0716 11.8003 14.9583C11.5564 15.8449 11.6102 16.7871 11.9536 17.6402C12.297 18.4933 12.9109 19.2101 13.7011 19.6805C12.1036 20.202 10.7348 21.3031 9.84649 22.8394C9.81392 22.8925 9.79231 22.9516 9.78295 23.0132C9.77358 23.0748 9.77665 23.1376 9.79197 23.198C9.80729 23.2584 9.83456 23.3151 9.87215 23.3648C9.90974 23.4145 9.95691 23.4562 10.0109 23.4873C10.0648 23.5185 10.1245 23.5385 10.1863 23.5463C10.2481 23.554 10.3109 23.5493 10.3708 23.5324C10.4308 23.5155 10.4868 23.4867 10.5355 23.4478C10.5841 23.409 10.6245 23.3607 10.6543 23.306C11.7531 21.4069 13.6953 20.2731 15.8492 20.2731C18.0031 20.2731 19.9453 21.4069 21.0441 23.306C21.0738 23.3607 21.1142 23.409 21.1629 23.4478C21.2116 23.4867 21.2676 23.5155 21.3275 23.5324C21.3875 23.5493 21.4503 23.554 21.5121 23.5463C21.5739 23.5385 21.6336 23.5185 21.6875 23.4873C21.7415 23.4562 21.7886 23.4145 21.8262 23.3648C21.8638 23.3151 21.8911 23.2584 21.9064 23.198C21.9217 23.1376 21.9248 23.0748 21.9154 23.0132C21.9061 22.9516 21.8845 22.8925 21.8519 22.8394ZM12.5831 16.0738C12.5831 15.4278 12.7746 14.7963 13.1335 14.2592C13.4924 13.7221 14.0025 13.3035 14.5993 13.0563C15.1961 12.8091 15.8528 12.7444 16.4864 12.8704C17.12 12.9964 17.7019 13.3075 18.1587 13.7643C18.6155 14.221 18.9266 14.803 19.0526 15.4366C19.1786 16.0702 19.1139 16.7269 18.8667 17.3237C18.6195 17.9205 18.2009 18.4306 17.6638 18.7895C17.1266 19.1484 16.4952 19.3399 15.8492 19.3399C14.9832 19.339 14.153 18.9946 13.5407 18.3823C12.9284 17.77 12.584 16.9397 12.5831 16.0738Z" fill="#A4A4A4"/>
<path d="M30.9312 22.8394C30.0429 21.3037 28.674 20.2025 27.0765 19.6805C27.8667 19.2101 28.4807 18.4933 28.8241 17.6402C29.1674 16.7871 29.2213 15.8449 28.9774 14.9583C28.7334 14.0716 28.2052 13.2895 27.4737 12.7321C26.7423 12.1747 25.8481 11.8729 24.9285 11.8729C24.0089 11.8729 23.1147 12.1747 22.3832 12.7321C21.6518 13.2895 21.1235 14.0716 20.8796 14.9583C20.6357 15.8449 20.6895 16.7871 21.0329 17.6402C21.3763 18.4933 21.9902 19.2101 22.7804 19.6805C21.1829 20.202 19.8141 21.3031 18.9258 22.8394C18.8932 22.8925 18.8716 22.9516 18.8622 23.0132C18.8529 23.0748 18.8559 23.1376 18.8713 23.198C18.8866 23.2584 18.9138 23.3151 18.9514 23.3648C18.989 23.4145 19.0362 23.4562 19.0901 23.4873C19.1441 23.5185 19.2038 23.5385 19.2656 23.5463C19.3274 23.554 19.3902 23.5493 19.4501 23.5324C19.5101 23.5155 19.5661 23.4867 19.6148 23.4478C19.6634 23.409 19.7038 23.3607 19.7336 23.306C20.8324 21.4069 22.7746 20.2731 24.9285 20.2731C27.0824 20.2731 29.0246 21.4069 30.1234 23.306C30.1531 23.3607 30.1935 23.409 30.2422 23.4478C30.2909 23.4867 30.3469 23.5155 30.4068 23.5324C30.4668 23.5493 30.5296 23.554 30.5914 23.5463C30.6532 23.5385 30.7129 23.5185 30.7668 23.4873C30.8208 23.4562 30.8679 23.4145 30.9055 23.3648C30.9431 23.3151 30.9704 23.2584 30.9857 23.198C31.001 23.1376 31.0041 23.0748 30.9947 23.0132C30.9854 22.9516 30.9638 22.8925 30.9312 22.8394ZM21.6623 16.0738C21.6623 15.4278 21.8539 14.7963 22.2128 14.2592C22.5717 13.7221 23.0818 13.3035 23.6786 13.0563C24.2754 12.8091 24.9321 12.7444 25.5657 12.8704C26.1992 12.9964 26.7812 13.3075 27.238 13.7643C27.6948 14.221 28.0058 14.803 28.1319 15.4366C28.2579 16.0702 28.1932 16.7269 27.946 17.3237C27.6988 17.9205 27.2802 18.4306 26.743 18.7895C26.2059 19.1484 25.5745 19.3399 24.9285 19.3399C24.0625 19.339 23.2323 18.9946 22.62 18.3823C22.0077 17.77 21.6633 16.9397 21.6623 16.0738Z" fill="#A4A4A4"/>
<path d="M21.8519 10.9665C20.9636 9.43082 19.5948 8.32966 17.9973 7.80766C18.7875 7.33726 19.4014 6.62047 19.7448 5.76737C20.0882 4.91428 20.142 3.97205 19.8981 3.08538C19.6541 2.19872 19.1259 1.41664 18.3944 0.859255C17.663 0.301871 16.7688 0 15.8492 0C14.9296 0 14.0354 0.301871 13.304 0.859255C12.5725 1.41664 12.0443 2.19872 11.8003 3.08538C11.5564 3.97205 11.6102 4.91428 11.9536 5.76737C12.297 6.62047 12.9109 7.33726 13.7011 7.80766C12.1036 8.32908 10.7348 9.43024 9.84649 10.9665C9.81392 11.0196 9.79231 11.0787 9.78295 11.1403C9.77358 11.2019 9.77665 11.2648 9.79197 11.3252C9.80729 11.3855 9.83456 11.4423 9.87215 11.4919C9.90974 11.5416 9.95691 11.5833 10.0109 11.6145C10.0648 11.6456 10.1245 11.6657 10.1863 11.6734C10.2481 11.6811 10.3109 11.6764 10.3708 11.6595C10.4308 11.6426 10.4868 11.6139 10.5355 11.575C10.5841 11.5361 10.6245 11.4878 10.6543 11.4331C11.7531 9.53405 13.6953 8.40024 15.8492 8.40024C18.0031 8.40024 19.9453 9.53405 21.0441 11.4331C21.0738 11.4878 21.1142 11.5361 21.1629 11.575C21.2116 11.6139 21.2676 11.6426 21.3275 11.6595C21.3875 11.6764 21.4503 11.6811 21.5121 11.6734C21.5739 11.6657 21.6336 11.6456 21.6875 11.6145C21.7415 11.5833 21.7886 11.5416 21.8262 11.4919C21.8638 11.4423 21.8911 11.3855 21.9064 11.3252C21.9217 11.2648 21.9248 11.2019 21.9154 11.1403C21.9061 11.0787 21.8845 11.0196 21.8519 10.9665ZM12.5831 4.20091C12.5831 3.55493 12.7746 2.92345 13.1335 2.38634C13.4924 1.84923 14.0025 1.4306 14.5993 1.18339C15.1961 0.936184 15.8528 0.871503 16.4864 0.997528C17.12 1.12355 17.7019 1.43462 18.1587 1.8914C18.6155 2.34818 18.9266 2.93015 19.0526 3.56372C19.1786 4.19729 19.1139 4.854 18.8667 5.45081C18.6195 6.04762 18.2009 6.55772 17.6638 6.91661C17.1266 7.2755 16.4952 7.46705 15.8492 7.46705C14.9832 7.46613 14.153 7.12172 13.5407 6.5094C12.9284 5.89708 12.584 5.06686 12.5831 4.20091Z" fill="#A4A4A4"/>
<path d="M12.0742 22.8394C11.186 21.3037 9.81711 20.2025 8.21961 19.6805C9.00981 19.2101 9.62374 18.4933 9.96712 17.6402C10.3105 16.7871 10.3644 15.8449 10.1204 14.9583C9.87648 14.0716 9.34823 13.2895 8.61679 12.7321C7.88534 12.1747 6.99116 11.8729 6.07154 11.8729C5.15193 11.8729 4.25774 12.1747 3.5263 12.7321C2.79486 13.2895 2.2666 14.0716 2.02266 14.9583C1.77872 15.8449 1.83258 16.7871 2.17596 17.6402C2.51935 18.4933 3.13328 19.2101 3.92347 19.6805C2.32598 20.202 0.957117 21.3031 0.0688435 22.8394C0.0362689 22.8925 0.0146624 22.9516 0.00529884 23.0132C-0.00406474 23.0748 -0.000995748 23.1376 0.0143247 23.198C0.0296452 23.2584 0.0569069 23.3151 0.0945012 23.3648C0.132096 23.4145 0.179261 23.4562 0.233215 23.4873C0.287169 23.5185 0.346818 23.5385 0.408643 23.5463C0.470469 23.554 0.533218 23.5493 0.593188 23.5324C0.653159 23.5155 0.709136 23.4867 0.757817 23.4478C0.806498 23.409 0.846897 23.3607 0.87663 23.306C1.97545 21.4069 3.91764 20.2731 6.07154 20.2731C8.22545 20.2731 10.1676 21.4069 11.2665 23.306C11.2962 23.3607 11.3366 23.409 11.3853 23.4478C11.434 23.4867 11.4899 23.5155 11.5499 23.5324C11.6099 23.5493 11.6726 23.554 11.7344 23.5463C11.7963 23.5385 11.8559 23.5185 11.9099 23.4873C11.9638 23.4562 12.011 23.4145 12.0486 23.3648C12.0862 23.3151 12.1134 23.2584 12.1288 23.198C12.1441 23.1376 12.1472 23.0748 12.1378 23.0132C12.1284 22.9516 12.1068 22.8925 12.0742 22.8394ZM2.8054 16.0738C2.8054 15.4278 2.99696 14.7963 3.35585 14.2592C3.71473 13.7221 4.22484 13.3035 4.82165 13.0563C5.41845 12.8091 6.07517 12.7444 6.70874 12.8704C7.34231 12.9964 7.92428 13.3075 8.38105 13.7643C8.83783 14.221 9.1489 14.803 9.27493 15.4366C9.40095 16.0702 9.33627 16.7269 9.08906 17.3237C8.84186 17.9205 8.42323 18.4306 7.88611 18.7895C7.349 19.1484 6.71753 19.3399 6.07154 19.3399C5.20559 19.339 4.37538 18.9946 3.76306 18.3823C3.15074 17.77 2.80633 16.9397 2.8054 16.0738Z" fill="#A4A4A4"/>
</svg>
